# xmcd
#
# Track frame offsets:
#	150
#	12045
#	30899
#	45824
#	62292
#	86561
#	101839
#	116529
#	135855
#	149583
#	165185
#	184051
#	198189
#	214788
#	230439
#	244884
#	272387
#
# Disc length: 3646 seconds
#
# Revision: 1
# Processed by: cddbd v1.5.2PL0 Copyright (c) Steve Scherf et al.
# Submitted via: audiograbber 1.83.01
#
DISCID=cb0e3c11
DTITLE=Chartbusters - Country 500 vol.1d.21
DYEAR=1900
DGENRE=karaoke
TTITLE0=John Michael Montgomery - Sold (The Grundy Country Auction Incident)
TTITLE1=Shania Twain - Any man of mine
TTITLE2=Tim McGraw - I Like, It Love It
TTITLE3=Martina McBride - Wild Angels
TTITLE4=Vince Gill - Go Rest High on that Mountain
TTITLE5=Terri Clark - Better Things to Do
TTITLE6=Tracy Lawrence - Time Marches On
TTITLE7=Deana Carter - Strawberry Wine
TTITLE8=Daryle Singletary - Too Much Fun
TTITLE9=Jo Dee Messina - Heads California, Tails California
TTITLE10=Clint Black - Nothing but the Taillights
TTITLE11=LeAnne Rimes - Blue
TTITLE12=Daryle Singletary - Amen kind of Love
TTITLE13=Mindy McCready - Guys Love it All the Time
TTITLE14=Dixie Chicks - I Can Love You Better
TTITLE15=Mindy McCready - Ten thousand angles
TTITLE16=Data - Track
EXTD=
EXTT0=
EXTT1=
EXTT2=
EXTT3=
EXTT4=
EXTT5=
EXTT6=
EXTT7=
EXTT8=
EXTT9=
EXTT10=
EXTT11=
EXTT12=
EXTT13=
EXTT14=
EXTT15=
EXTT16=
PLAYORDER=
